<svg width="64" height="64" viewBox="0 0 64 64" fill="none" xmlns="http://www.w3.org/2000/svg">
<path d="M53.3334 21.3334H37.3334C35.8607 21.3334 34.6667 22.5273 34.6667 24V50.6667C34.6667 52.1395 35.8607 53.3334 37.3334 53.3334H53.3334C54.8062 53.3334 56.0001 52.1395 56.0001 50.6667V24C56.0001 22.5273 54.8062 21.3334 53.3334 21.3334Z" stroke="#F1F3F6" stroke-width="2" stroke-linecap="round" stroke-linejoin="round"/>
<path d="M48 21.3333V13.3333C48 12.626 47.7191 11.9478 47.219 11.4477C46.7189 10.9476 46.0406 10.6666 45.3333 10.6666H10.6667C9.95942 10.6666 9.28115 10.9476 8.78105 11.4477C8.28095 11.9478 8 12.626 8 13.3333V45.3333C8 46.0405 8.28095 46.7188 8.78105 47.2189C9.28115 47.719 9.95942 48 10.6667 48H34.6667" stroke="#F1F3F6" stroke-width="2" stroke-linecap="round" stroke-linejoin="round"/>
<path d="M42.6667 24H48.0001" stroke="#F1F3F6" stroke-width="2" stroke-linecap="round" stroke-linejoin="round"/>
</svg>
